<svg width="64" height="64" viewBox="0 0 64 64" fill="none" xmlns="http://www.w3.org/2000/svg">
<g clip-path="url(#clip0_355_26917)">
<rect width="64" height="64" rx="4" fill="white"/>
<path d="M7.75592 45.3382C11.4042 51.6573 17.4133 56.2682 24.4613 58.1567C31.5093 60.0452 39.0188 59.0566 45.3379 55.4083C51.6569 51.76 56.2679 45.7509 58.1564 38.7029C60.0449 31.6549 59.0562 24.1454 55.4079 17.8263L31.5819 31.5823L7.75592 45.3382Z" fill="black"/>
<path d="M55.475 17.9494C51.8446 11.6613 45.865 7.07293 38.8515 5.19369C31.8381 3.31445 24.3654 4.29825 18.0773 7.92867C11.7892 11.5591 7.20089 17.5387 5.32165 24.5522C3.4424 31.5656 4.4262 39.0383 8.05662 45.3264L31.7658 31.6379L55.475 17.9494Z" fill="#FFE3EB"/>
<path d="M49.1681 21.5891C46.5034 16.9737 42.1144 13.6059 36.9666 12.2266C31.8188 10.8472 26.3339 11.5693 21.7186 14.234C17.1032 16.8987 13.7354 21.2877 12.356 26.4355C10.9767 31.5833 11.6988 37.0682 14.3635 41.6836L31.7658 31.6363L49.1681 21.5891Z" fill="#FEB2C7"/>
<path d="M40.7597 26.4408C40.0779 25.2598 39.1701 24.2247 38.0882 23.3945C37.0063 22.5643 35.7715 21.9554 34.4543 21.6024C33.137 21.2495 31.7632 21.1594 30.4111 21.3374C29.0591 21.5154 27.7554 21.958 26.5744 22.6398C25.3934 23.3217 24.3583 24.2295 23.5281 25.3114C22.6979 26.3933 22.089 27.6281 21.736 28.9453C21.3831 30.2625 21.293 31.6364 21.471 32.9884C21.649 34.3405 22.0916 35.6442 22.7734 36.8252L31.7666 31.633L40.7597 26.4408Z" fill="#DD003D"/>
</g>
<defs>
<clipPath id="clip0_355_26917">
<rect width="64" height="64" rx="4" fill="white"/>
</clipPath>
</defs>
</svg>
